<?xml version="1.0" encoding="UTF-8"?>
<!-- Generator: Adobe Illustrator 16.0.0, SVG Export Plug-In . SVG Version: 6.00 Build 0)  -->
<!DOCTYPE svg PUBLIC "-//W3C//DTD SVG 1.1//EN" "http://www.w3.org/Graphics/SVG/1.1/DTD/svg11.dtd">
<svg version="1.1" xmlns="http://www.w3.org/2000/svg" xmlns:xlink="http://www.w3.org/1999/xlink" x="0px" y="0px" width="567.497px" height="237.391px" viewBox="0 0 567.497 237.391" style="enable-background:new 0 0 567.497 237.391;" xml:space="preserve">
<style type="text/css">
<![CDATA[
	.st0{fill:#1E3677;}
	.st1{fill:#BB4F28;}
	.st2{display:inline;fill:#95B13B;}
	.st3{display:inline;fill:#FFFFFF;}
	.st4{clip-path:url(#SVGID_2_);fill:#BB4F28;}
	.st5{fill:#FFFFFF;}
	.st6{fill:#6297C8;}
	.st7{display:inline;fill:#386338;}
	.st8{display:inline;}
	.st9{clip-path:url(#SVGID_2_);fill:#FFFFFF;}
	.st10{fill:#386338;}
	.st11{display:inline;fill:#D8D9DD;}
	.st12{display:none;}
	.st13{clip-path:url(#SVGID_2_);fill:#D8A545;}
]]>
</style>
<g id="Fondo" class="st12">
	<rect x="-369.158" y="-200.025" class="st11" width="1369" height="663"/>
</g>
<g id="Pastilla">
	<path class="st5" d="M531.872,237.391H35.625C15.95,237.391,0,221.44,0,201.766V35.625C0,15.949,15.95,0,35.625,0h496.247   c19.676,0,35.625,15.949,35.625,35.625v166.141C567.497,221.44,551.547,237.391,531.872,237.391"/>
</g>
<g id="Epda" class="st12">
	<g class="st8">
		<defs>
			<rect id="SVGID_1_" x="-902" y="-1402.995" width="4332.221" height="2609.905"/>
		</defs>
		<clipPath id="SVGID_2_">
			<use xlink:href="#SVGID_1_" style="overflow:visible;"/>
		</clipPath>
		<path class="st13" d="M522.001,87.266l-0.124,100.78H421.21c-15.78,0-28.571-12.792-28.571-28.573v-43.664    c0-31.563,25.586-57.15,57.149-57.15h43.64C509.223,58.658,522.02,71.473,522.001,87.266"/>
		<path class="st9" d="M440.401,155.02h-47.644V58.397h96.492v47.772C489.25,145.682,467.379,155.02,440.401,155.02"/>
		<path class="st13" d="M392.217,67.211h12.743c38.231,0,54.998,11.626,54.998,37.783v2.014c0,29.063-18.78,38.453-38.229,38.453    c-13.414,0-20.371-3.198-29.09-9.459 M392.505,113.51c5.078,2.439,11.337,4.676,18.045,4.676c9.39,0,14.085-1.787,14.085-11.178    v-2.014c0-10.953-4.025-16.318-19.675-16.318l-12.455,0.241V113.51z"/>
		<path class="st4" d="M376.235,171.402l0.159-129.388h129.239v72.238c0,31.512-25.637,57.149-57.15,57.149H376.235z     M392.756,58.397l-0.119,96.622h55.846c22.479,0,40.768-18.288,40.768-40.767V58.397H392.756z"/>
	</g>
	<g class="st8">
		<path class="st1" d="M150.3,93.562c-2.442,0.257-8.739,0.321-12.53,0.321c-8.996,0-13.687-3.406-13.687-11.952V57.193    c0-8.546,4.691-11.952,13.687-11.952c3.791,0,9.831,0.129,12.53,0.386c0.385,0.064,0.643,0.514,0.643,0.899v3.213    c0,0.45-0.257,0.771-0.707,0.771h-12.401c-6.811,0-7.903,1.799-7.903,6.683v8.931h19.727c0.707,0,1.285,0.579,1.285,1.285v2.442    c0,0.706-0.579,1.284-1.285,1.284h-19.727v10.795c0,4.884,1.092,6.683,7.903,6.683h12.401c0.45,0,0.707,0.321,0.707,0.771v3.276    C150.942,93.047,150.685,93.497,150.3,93.562z"/>
		<path class="st1" d="M163.986,93.433h-3.341c-0.643,0-1.157-0.578-1.157-1.285V46.334c0-0.643,0.45-1.221,1.157-1.221h3.341    c0.643,0,1.157,0.514,1.157,1.221v45.813C165.143,92.79,164.692,93.433,163.986,93.433z"/>
		<path class="st1" d="M203.565,93.883c-1.992,0-5.012-0.258-7.518-0.707v11.63c0,0.643-0.514,1.221-1.221,1.221h-3.277    c-0.643,0-1.157-0.514-1.157-1.221V60.599c0-0.836,0.193-1.221,1.35-1.479c3.405-0.835,7.903-1.478,11.823-1.478    c9.574,0,14.008,6.232,14.008,15.871v4.626C217.573,88.228,212.947,93.883,203.565,93.883z M211.918,73.514    c0-6.747-1.992-11.116-8.353-11.116c-2.699,0-5.719,0.321-7.518,0.643v25.445c2.12,0.385,5.461,0.643,7.518,0.643    c6.297,0,8.353-4.112,8.353-10.988V73.514z"/>
		<path class="st1" d="M238.263,93.883c-9.446,0-14.265-6.233-14.265-15.679v-4.883c0-9.446,4.819-15.679,14.265-15.679    c9.445,0,14.329,6.232,14.329,15.679v4.883C252.591,87.649,247.708,93.883,238.263,93.883z M246.937,73.321    c0-6.555-2.635-10.731-8.674-10.731c-5.976,0-8.61,4.113-8.61,10.731v4.883c0,6.554,2.57,10.73,8.61,10.73    c5.976,0,8.674-4.112,8.674-10.73V73.321z"/>
		<path class="st1" d="M274.695,62.526c-2.956,0-5.655,0.771-8.867,2.698v26.923c0,0.643-0.579,1.285-1.285,1.285h-3.148    c-0.643,0-1.221-0.578-1.221-1.285v-32.77c0-0.707,0.514-1.285,1.221-1.285h3.02c0.707,0,1.221,0.578,1.221,1.285v1.349    c3.213-2.248,6.168-3.084,9.06-3.084c0.899,0,1.349,0.386,1.349,1.156v2.635C276.044,62.141,275.595,62.526,274.695,62.526z"/>
		<path class="st1" d="M299.754,93.562c-1.285,0.192-2.956,0.321-4.178,0.321c-5.91,0-8.738-1.543-8.738-8.61V62.848l-6.232-0.707    c-0.707-0.064-1.221-0.45-1.221-1.156v-1.735c0-0.707,0.514-1.156,1.221-1.156h6.232v-6.297c0-0.643,0.45-1.157,1.156-1.285    l3.342-0.515c0.064,0,0.129,0,0.193,0c0.514,0,0.963,0.45,0.963,1.093v7.004h6.939c0.707,0,1.285,0.578,1.285,1.285v2.185    c0,0.707-0.578,1.285-1.285,1.285h-6.939v22.425c0,3.534,0.9,4.048,3.471,4.048h3.598c0.9,0,1.35,0.257,1.35,0.899v2.249    C300.911,93.047,300.589,93.433,299.754,93.562z"/>
		<path class="st1" d="M330.21,93.433h-2.956c-0.707,0-1.285-0.578-1.285-1.285v-1.413c-3.084,1.799-6.297,3.148-9.895,3.148    c-5.462,0-10.475-2.378-10.475-10.41v-0.771c0-6.939,4.049-10.409,15.486-10.409h4.755v-2.57c0-5.397-1.864-7.261-6.876-7.261    c-4.176,0-7.26,0.257-9.83,0.514c-0.129,0-0.193,0-0.322,0c-0.578,0-1.156-0.192-1.156-1.027v-2.249    c0-0.707,0.45-1.093,1.35-1.221c2.635-0.45,5.59-0.836,9.959-0.836c8.932,0,12.53,4.498,12.53,12.08v22.425    C331.496,92.854,330.917,93.433,330.21,93.433z M325.841,76.341h-4.755c-7.775,0-9.831,1.735-9.831,6.297v0.771    c0,4.626,2.185,5.847,5.911,5.847c2.956,0,5.59-0.899,8.675-2.57V76.341z"/>
		<path class="st1" d="M345.375,93.433h-3.342c-0.643,0-1.156-0.578-1.156-1.285V46.334c0-0.643,0.449-1.221,1.156-1.221h3.342    c0.643,0,1.156,0.514,1.156,1.221v45.813C346.532,92.79,346.082,93.433,345.375,93.433z"/>
	</g>
	<g class="st8">
		<path class="st1" d="M72.422,169.896c-3.983,0.771-7.903,1.093-11.823,1.093c-9.574,0-14.007-6.233-14.007-15.871v-4.627    c0-10.088,4.626-15.742,14.007-15.742c1.992,0,5.012,0.193,7.518,0.643V123.44c0-0.643,0.514-1.221,1.221-1.221h3.277    c0.643,0,1.157,0.514,1.157,1.221v44.979C73.772,169.254,73.579,169.704,72.422,169.896z M68.118,140.146    c-2.121-0.386-5.462-0.449-7.518-0.449c-6.297,0-8.353,3.919-8.353,10.794v4.627c0,7.004,1.992,10.923,8.353,10.923    c2.185,0,5.333-0.192,7.518-0.386V140.146z"/>
		<path class="st1" d="M108.533,154.668H87.008v0.899c0,7.646,3.02,10.474,8.931,10.474c3.727,0,8.482-0.257,11.438-0.707    c0.128,0,0.193,0,0.321,0c0.514,0,1.028,0.258,1.028,0.9v2.185c0,0.835-0.257,1.285-1.285,1.478    c-3.663,0.707-7.197,1.093-11.502,1.093c-7.389,0-14.585-3.47-14.585-15.422v-5.782c0-9.188,5.076-15.036,14.265-15.036    c9.381,0,14.136,5.911,14.136,15.036v3.47C109.754,154.09,109.304,154.668,108.533,154.668z M104.035,149.785    c0-7.261-2.763-10.088-8.417-10.088c-5.526,0-8.61,3.148-8.61,10.088v0.578h17.027V149.785z"/>
		<path class="st1" d="M122.604,170.539h-3.341c-0.643,0-1.157-0.578-1.157-1.285V123.44c0-0.643,0.45-1.221,1.157-1.221h3.341    c0.643,0,1.157,0.514,1.157,1.221v45.813C123.761,169.896,123.311,170.539,122.604,170.539z"/>
		<path class="st1" d="M172.336,170.539h-2.956c-0.707,0-1.285-0.578-1.285-1.285v-1.413c-3.084,1.799-6.297,3.148-9.896,3.148    c-5.461,0-10.474-2.378-10.474-10.41v-0.771c0-6.939,4.048-10.409,15.486-10.409h4.755v-2.57c0-5.397-1.864-7.261-6.875-7.261    c-4.177,0-7.261,0.257-9.831,0.514c-0.128,0-0.193,0-0.321,0c-0.578,0-1.156-0.192-1.156-1.027v-2.249    c0-0.707,0.45-1.093,1.349-1.222c2.634-0.449,5.59-0.835,9.959-0.835c8.932,0,12.53,4.498,12.53,12.08v22.425    C173.622,169.961,173.043,170.539,172.336,170.539z M167.967,153.447h-4.755c-7.775,0-9.831,1.735-9.831,6.297v0.771    c0,4.626,2.185,5.847,5.911,5.847c2.956,0,5.59-0.899,8.675-2.57V153.447z"/>
		<path class="st1" d="M187.5,170.539h-3.341c-0.643,0-1.157-0.578-1.157-1.285V123.44c0-0.643,0.45-1.221,1.157-1.221h3.341    c0.643,0,1.157,0.514,1.157,1.221v45.813C188.657,169.896,188.207,170.539,187.5,170.539z"/>
		<path class="st1" d="M223.868,170.539h-3.213c-0.707,0-1.221-0.578-1.221-1.285v-1.221c-3.534,1.992-6.425,2.956-10.216,2.956    c-7.711,0-11.181-4.819-11.181-13.365v-21.14c0-0.707,0.579-1.285,1.285-1.285h3.084c0.707,0,1.285,0.578,1.285,1.285v21.14    c0,6.489,2.185,8.481,7.068,8.481c2.699,0,5.719-1.028,8.674-2.506v-27.115c0-0.643,0.578-1.285,1.285-1.285h3.148    c0.643,0,1.221,0.578,1.221,1.285v32.77C225.089,169.961,224.575,170.539,223.868,170.539z"/>
		<path class="st1" d="M275.079,170.539h-3.084c-0.707,0-1.285-0.578-1.285-1.285v-22.746c0-5.397-2.506-6.875-5.847-6.875    c-2.313,0-5.012,0.771-7.518,1.734c0.385,1.414,0.578,3.084,0.578,5.012v22.875c0,0.643-0.45,1.285-1.157,1.285h-3.405    c-0.643,0-1.092-0.578-1.092-1.285v-22.875c0-5.59-1.606-6.746-4.948-6.746c-2.313,0-5.14,1.156-7.839,2.506v27.115    c0,0.643-0.45,1.285-1.157,1.285h-3.406c-0.642,0-1.092-0.578-1.092-1.285v-32.77c0-0.707,0.514-1.285,1.221-1.285h3.212    c0.707,0,1.221,0.578,1.221,1.285v1.221c2.57-1.606,5.847-3.021,9.381-3.021c2.763,0,4.819,0.771,6.426,2.635    c3.534-1.671,7.325-2.635,10.666-2.635c5.783,0,10.409,2.892,10.409,11.823v22.746    C276.364,169.961,275.786,170.539,275.079,170.539z"/>
		<path class="st1" d="M310.868,170.539h-3.084c-0.707,0-1.285-0.578-1.285-1.285v-21.14c0-6.49-2.184-8.481-7.067-8.481    c-2.698,0-5.719,1.027-8.675,2.506v27.115c0,0.643-0.578,1.285-1.285,1.285h-3.148c-0.643,0-1.221-0.578-1.221-1.285v-32.77    c0-0.707,0.514-1.285,1.221-1.285h3.213c0.707,0,1.221,0.578,1.221,1.285v1.221c3.534-1.992,6.426-2.956,10.217-2.956    c7.711,0,11.18,4.819,11.18,13.365v21.14C312.153,169.961,311.575,170.539,310.868,170.539z"/>
		<path class="st1" d="M334,170.989c-9.446,0-14.266-6.233-14.266-15.679v-4.883c0-9.446,4.819-15.679,14.266-15.679    c9.445,0,14.328,6.232,14.328,15.679v4.883C348.329,164.756,343.446,170.989,334,170.989z M342.674,150.428    c0-6.555-2.635-10.73-8.674-10.73c-5.977,0-8.611,4.111-8.611,10.73v4.883c0,6.554,2.57,10.73,8.611,10.73    c5.975,0,8.674-4.112,8.674-10.73V150.428z"/>
	</g>
</g>
<g id="Nova">
	<g>
		<path class="st0" d="M124.03,163.288h-8.226c-2.123,0-3.582-0.796-4.246-2.123l-40.997-77.88    c-0.133-0.266-0.265-0.398-0.398-0.398s-0.133,0.133-0.133,0.398v77.482c0,1.326-1.061,2.521-2.388,2.521h-6.899    c-1.327,0-2.388-0.266-2.388-1.592V68.426c0-2.123,1.725-3.716,3.848-3.716H69.5c3.715,0,4.378,0.664,5.44,2.654l40.731,77.482    l0.265,0.397c0.133,0,0.133-0.266,0.133-0.397V67.231c0-1.327,1.061-2.521,2.388-2.521h7.032c1.459,0,2.388,1.194,2.388,2.521    v92.209C127.877,161.563,126.152,163.288,124.03,163.288z"/>
		<path class="st0" d="M174.312,164.217c-19.503,0-29.454-12.869-29.454-32.373v-10.083c0-19.503,9.951-32.373,29.454-32.373    c19.503,0,29.586,12.87,29.586,32.373v10.083C203.898,151.348,193.814,164.217,174.312,164.217z M192.223,121.761    c0-13.533-5.44-22.157-17.911-22.157c-12.339,0-17.779,8.492-17.779,22.157v10.083c0,13.533,5.307,22.157,17.779,22.157    c12.338,0,17.911-8.491,17.911-22.157V121.761z"/>
		<path class="st0" d="M272.623,93.501l-17.911,63.153c-1.725,5.971-6.236,7.563-11.941,7.563c-5.705,0-10.216-1.592-11.94-7.563    l-17.911-63.153c-0.133-0.398-0.133-0.663-0.133-0.929c0-1.327,0.796-2.256,2.123-2.256h7.297c1.062,0,1.99,0.797,2.521,2.521    l15.257,57.846c0.796,3.185,1.459,3.848,2.786,3.848c1.194,0,1.99-0.663,2.787-3.848l15.257-57.846    c0.531-1.725,1.459-2.521,2.521-2.521h7.297c1.327,0,2.123,0.929,2.123,2.256C272.755,92.838,272.755,93.103,272.623,93.501z"/>
		<path class="st0" d="M332.458,163.288h-6.103c-1.46,0-2.653-1.194-2.653-2.653v-2.919c-6.369,3.715-13.002,6.501-20.432,6.501    c-11.277,0-21.626-4.909-21.626-21.493v-1.593c0-14.328,8.359-21.493,31.974-21.493h9.818v-5.307    c0-11.145-3.848-14.992-14.196-14.992c-8.624,0-14.992,0.53-20.3,1.062c-0.265,0-0.397,0-0.663,0    c-1.194,0-2.388-0.398-2.388-2.123v-4.644c0-1.46,0.929-2.256,2.786-2.521c5.439-0.93,11.542-1.726,20.564-1.726    c18.442,0,25.872,9.287,25.872,24.943v46.304C335.112,162.094,333.917,163.288,332.458,163.288z M323.436,127.996h-9.818    c-16.053,0-20.299,3.583-20.299,13.003v1.592c0,9.553,4.511,12.073,12.206,12.073c6.103,0,11.542-1.857,17.911-5.307V127.996z"/>
	</g>
	<path class="st6" d="M519.985,88.266l-0.125,100.78H419.194c-15.779,0-28.572-12.792-28.572-28.573v-43.664   c0-31.563,25.588-57.15,57.15-57.15h43.639C507.206,59.658,520.004,72.472,519.985,88.266"/>
	<path class="st5" d="M448.336,70.999c15.242,0,25.926,2.984,38.82,11.761V59.397h-96.494v96.622h13.689v-28.612   C404.352,96.097,412.305,70.999,448.336,70.999"/>
	<path class="st5" d="M462.999,104.297c-15.158,0-18.389,5.715-18.389,23.111v28.611h2.014c19.635,0,36.006-13.963,39.732-32.5   v-11.27C477.909,107.776,470.204,104.297,462.999,104.297"/>
	<path class="st6" d="M487.157,82.76C474.262,73.982,463.579,71,448.336,71c-36.031,0-43.984,25.097-43.984,56.408v28.611h40.258   v-28.611c0-17.396,3.23-23.111,18.389-23.111c7.207,0,14.91,3.48,23.357,7.953v11.27c0.523-2.597,0.801-5.281,0.801-8.033V82.76z"/>
	<path class="st0" d="M374.2,172.402l0.16-129.388h129.238v72.238c0,31.512-25.637,57.149-57.15,57.149H374.2z M390.723,59.397   l-0.119,96.622h55.844c22.48,0,40.768-18.288,40.768-40.767V59.397H390.723z"/>
</g>
<g id="GestionNet" class="st12">
	<g class="st8">
		<path class="st10" d="M84.493,100.558c-4.066,0.664-8.714,1.245-16.516,1.245c-10.374,0-21.495-6.806-21.495-25.811V64.871    c0-20.167,11.619-25.894,22.242-25.894c7.718,0,12.615,0.664,15.769,1.161c0.747,0.083,1.411,0.415,1.411,1.245v4.149    c0,0.581-0.332,0.83-1.079,0.83c-0.083,0-0.249,0-0.332,0c-4.896-0.415-8.714-0.581-15.769-0.581    c-7.719,0-14.689,4.15-14.689,19.089v11.121c0,13.693,6.225,19.088,13.942,19.088c5.063,0,8.465-0.332,10.457-0.498V70.847    c0-0.913,0.581-1.66,1.494-1.66h4.481c0.83,0,1.577,0.747,1.577,1.66v27.885C85.987,99.645,85.406,100.392,84.493,100.558z"/>
		<path class="st10" d="M137.447,80.723h-27.803v1.162c0,9.876,3.9,13.527,11.536,13.527c4.813,0,10.955-0.332,14.772-0.913    c0.166,0,0.249,0,0.415,0c0.664,0,1.328,0.332,1.328,1.162v2.822c0,1.078-0.332,1.659-1.66,1.908    c-4.73,0.913-9.295,1.411-14.855,1.411c-9.545,0-18.84-4.481-18.84-19.918v-7.47c0-11.868,6.557-19.42,18.425-19.42    c12.116,0,18.258,7.635,18.258,19.42v4.481C139.023,79.976,138.442,80.723,137.447,80.723z M131.638,74.415    c0-9.378-3.569-13.03-10.872-13.03c-7.138,0-11.121,4.067-11.121,13.03v0.747h21.993V74.415z"/>
		<path class="st10" d="M168.075,101.803c-3.07,0-9.046-0.249-13.112-1.245c-1.079-0.249-1.743-0.747-1.743-1.66v-2.904    c0-0.747,0.664-1.245,1.494-1.245c0.166,0,0.249,0,0.332,0c3.983,0.498,10.042,0.913,13.029,0.913    c5.395,0,8.217-1.411,8.217-5.893c0-2.489-1.494-4.066-6.225-6.889l-8.382-4.979c-5.063-3.07-8.466-6.639-8.466-11.867    c0-8.632,6.474-11.038,15.021-11.038c4.648,0,9.047,0.415,12.947,1.079c1.079,0.165,1.577,0.746,1.577,1.659v2.739    c0,0.995-0.581,1.41-1.411,1.41c-0.083,0-0.166,0-0.249,0c-2.904-0.249-8.216-0.663-12.864-0.663c-4.647,0-7.718,0.58-7.718,4.813    c0,2.489,1.908,4.066,5.727,6.307l8.216,4.897c6.889,4.066,9.13,7.635,9.13,12.531    C183.596,98.234,177.371,101.803,168.075,101.803z"/>
		<path class="st10" d="M221.858,101.388c-1.66,0.249-3.818,0.415-5.395,0.415c-7.636,0-11.287-1.992-11.287-11.121V61.717    l-8.051-0.912c-0.913-0.083-1.576-0.581-1.576-1.494v-2.241c0-0.913,0.663-1.493,1.576-1.493h8.051v-8.134    c0-0.83,0.581-1.494,1.494-1.66l4.315-0.663c0.083,0,0.166,0,0.249,0c0.664,0,1.244,0.58,1.244,1.41v9.047h8.964    c0.913,0,1.659,0.746,1.659,1.659v2.822c0,0.913-0.746,1.659-1.659,1.659h-8.964v28.965c0,4.564,1.162,5.229,4.482,5.229h4.647    c1.161,0,1.742,0.332,1.742,1.162v2.904C223.352,100.724,222.937,101.222,221.858,101.388z"/>
		<path class="st10" d="M243.521,48.272h-4.233c-0.912,0-1.659-0.747-1.659-1.66v-6.639c0-0.913,0.747-1.66,1.659-1.66h4.233    c0.912,0,1.659,0.747,1.659,1.66v6.639C245.181,47.525,244.434,48.272,243.521,48.272z M243.355,101.222h-3.984    c-0.912,0-1.659-0.747-1.659-1.66V57.235c0-0.913,0.747-1.659,1.659-1.659h3.984c0.913,0,1.659,0.746,1.659,1.659v42.326    C245.015,100.475,244.269,101.222,243.355,101.222z"/>
		<path class="st10" d="M279.957,101.803c-12.2,0-18.425-8.051-18.425-20.25v-6.308c0-12.2,6.225-20.25,18.425-20.25    c12.2,0,18.506,8.05,18.506,20.25v6.308C298.463,93.752,292.157,101.803,279.957,101.803z M291.161,75.245    c0-8.466-3.402-13.86-11.204-13.86c-7.719,0-11.121,5.313-11.121,13.86v6.308c0,8.465,3.319,13.859,11.121,13.859    c7.717,0,11.204-5.312,11.204-13.859V75.245z M292.405,37.815l-9.377,10.457c-0.747,0.83-0.996,1.245-1.908,1.245h-4.482    c-0.498,0-0.746-0.249-0.746-0.581c0-0.249,0.082-0.581,0.331-0.83l8.134-10.291c0.747-0.913,0.997-1.245,1.993-1.245h5.477    c0.58,0,0.912,0.166,0.912,0.581C292.737,37.317,292.655,37.566,292.405,37.815z"/>
		<path class="st10" d="M347.268,101.222h-3.984c-0.912,0-1.658-0.747-1.658-1.66V72.257c0-8.382-2.822-10.954-9.131-10.954    c-3.484,0-7.385,1.327-11.203,3.236v35.022c0,0.83-0.746,1.66-1.66,1.66h-4.066c-0.83,0-1.576-0.747-1.576-1.66V57.235    c0-0.913,0.664-1.659,1.576-1.659h4.15c0.912,0,1.576,0.746,1.576,1.659v1.577c4.564-2.573,8.299-3.817,13.195-3.817    c9.959,0,14.441,6.225,14.441,17.262v27.305C348.928,100.475,348.182,101.222,347.268,101.222z"/>
	</g>
	<g class="st8">
		<path class="st10" d="M231.54,170.054h-3.487c-0.727,0-1.381-0.654-1.381-1.454v-6.757c0-0.727,0.581-1.381,1.381-1.381h3.487    c0.727,0,1.381,0.581,1.381,1.381v6.757C232.921,169.399,232.34,170.054,231.54,170.054z"/>
		<path class="st10" d="M279.207,170.126h-4.505c-1.163,0-1.962-0.436-2.325-1.163l-22.453-42.652    c-0.072-0.146-0.146-0.218-0.218-0.218c-0.073,0-0.073,0.072-0.073,0.218v42.435c0,0.727-0.581,1.381-1.308,1.381h-3.778    c-0.727,0-1.308-0.146-1.308-0.872v-51.081c0-1.163,0.944-2.035,2.106-2.035h3.997c2.034,0,2.397,0.363,2.979,1.453l22.308,42.436    l0.146,0.218c0.072,0,0.072-0.146,0.072-0.218v-42.508c0-0.727,0.582-1.381,1.309-1.381h3.851c0.8,0,1.309,0.654,1.309,1.381v50.5    C281.314,169.182,280.369,170.126,279.207,170.126z"/>
		<path class="st10" d="M321.352,152.179H297.01v1.017c0,8.647,3.416,11.845,10.102,11.845c4.213,0,9.59-0.291,12.934-0.8    c0.145,0,0.217,0,0.363,0c0.58,0,1.162,0.291,1.162,1.018v2.471c0,0.944-0.291,1.453-1.453,1.671    c-4.143,0.799-8.139,1.235-13.006,1.235c-8.357,0-16.496-3.924-16.496-17.439v-6.539c0-10.391,5.74-17.003,16.133-17.003    c10.607,0,15.984,6.685,15.984,17.003v3.924C322.733,151.524,322.225,152.179,321.352,152.179z M316.266,146.656    c0-8.211-3.125-11.408-9.518-11.408c-6.25,0-9.738,3.561-9.738,11.408v0.653h19.256V146.656z"/>
		<path class="st10" d="M349.256,170.271c-1.453,0.218-3.344,0.363-4.723,0.363c-6.686,0-9.883-1.744-9.883-9.737v-25.358    l-7.049-0.8c-0.799-0.072-1.381-0.509-1.381-1.308v-1.962c0-0.8,0.582-1.308,1.381-1.308h7.049v-7.121    c0-0.727,0.508-1.309,1.309-1.453l3.777-0.582c0.072,0,0.146,0,0.219,0c0.58,0,1.09,0.509,1.09,1.235v7.921h7.848    c0.799,0,1.453,0.653,1.453,1.453v2.471c0,0.799-0.654,1.453-1.453,1.453h-7.848v25.358c0,3.997,1.018,4.578,3.924,4.578h4.068    c1.018,0,1.525,0.291,1.525,1.018v2.543C350.563,169.69,350.2,170.126,349.256,170.271z"/>
	</g>
	<path class="st2" d="M520.997,87.421L520.874,188.2H420.206c-15.779,0-28.572-12.792-28.572-28.571v-43.666   c0-31.563,25.588-57.15,57.15-57.15h43.641C508.217,58.813,521.016,71.627,520.997,87.421"/>
	<path class="st7" d="M375.153,171.557l0.16-129.388h129.238v72.238c0,31.513-25.637,57.149-57.15,57.149H375.153z M391.676,58.552   l-0.119,96.622h55.844c22.479,0,40.768-18.287,40.768-40.767V58.552H391.676z"/>
	<path class="st3" d="M409.391,107.391v-1.871c0-9.591,3.977-18.478,14.033-26.197c-8.066-4.481-11.617-13.253-11.9-20.771h-19.908   v96.622h55.961c10.055,0,19.246-3.669,26.332-9.731c-1.67,0.045-3.361,0.075-5.107,0.075   C429.973,145.518,409.391,131.951,409.391,107.391"/>
	<path class="st3" d="M488.108,99.989c-3.217-2.052-9.328-4.103-20.709-6.632l-17.309-3.743c-2.807,3.976-4.678,7.719-4.678,15.905   v1.871c0,7.953,5.379,11.929,23.391,11.929c10.371,0,16.156-1.438,19.285-3.867c0.006-0.271,0.02-0.539,0.02-0.811V99.989z"/>
	<path class="st3" d="M448.92,62.014l26.432,5.848c4.592,1.003,8.826,1.973,12.756,2.937V58.552h-45.633   C443.305,60.239,445.17,61.233,448.92,62.014"/>
	<path class="st2" d="M423.424,79.322c-10.057,7.72-14.033,16.607-14.033,26.197v1.871c0,24.56,20.582,38.127,59.41,38.127   c1.746,0,3.438-0.03,5.107-0.075c8.496-7.27,13.943-17.987,14.18-29.99c-3.131,2.43-8.914,3.867-19.287,3.867   c-18.01,0-23.389-3.976-23.389-11.929v-1.871c0-8.186,1.871-11.929,4.678-15.905l17.309,3.743   c11.381,2.529,17.49,4.579,20.711,6.632V70.798c-3.932-0.964-8.166-1.935-12.76-2.937l-26.43-5.848   c-3.75-0.781-5.617-1.774-6.445-3.461h-30.951C411.807,66.069,415.358,74.841,423.424,79.322"/>
</g>
<style id="stylish-4" class="stylish" type="text/css">/* 4chan - Midnight Caek */
@namespace url(http://www.w3.org/1999/xhtml);</style></svg>